<svg width="40" height="41" viewBox="0 0 40 41" fill="none" xmlns="http://www.w3.org/2000/svg">
<path d="M8.42514 5.90947C8.31537 5.78573 8.18213 5.68501 8.03314 5.61314C7.88416 5.54128 7.72239 5.49969 7.55721 5.49081C7.39204 5.48192 7.22674 5.50591 7.07091 5.56137C6.91507 5.61684 6.77179 5.70269 6.64938 5.81394C6.52696 5.92518 6.42785 6.05962 6.35777 6.20946C6.2877 6.3593 6.24806 6.52155 6.24115 6.68682C6.23425 6.85209 6.26021 7.01709 6.31754 7.17225C6.37488 7.32741 6.46243 7.46965 6.57514 7.59072L9.19077 10.4688C8.07993 12.3755 7.49642 14.5434 7.50014 16.7501C7.50014 22.272 6.20952 26.497 5.34233 27.9907C5.12088 28.3705 5.00348 28.8019 5.00197 29.2415C5.00046 29.6811 5.11489 30.1133 5.33373 30.4946C5.55257 30.8759 5.86808 31.1927 6.24843 31.4131C6.62878 31.6335 7.06054 31.7498 7.50014 31.7501H28.5376L31.5751 35.0907C31.6849 35.2145 31.8182 35.3152 31.9671 35.387C32.1161 35.4589 32.2779 35.5005 32.4431 35.5094C32.6082 35.5183 32.7735 35.4943 32.9294 35.4388C33.0852 35.3833 33.2285 35.2975 33.3509 35.1863C33.4733 35.075 33.5724 34.9406 33.6425 34.7907C33.7126 34.6409 33.7522 34.4786 33.7591 34.3134C33.766 34.1481 33.7401 33.9831 33.6827 33.8279C33.6254 33.6728 33.5378 33.5305 33.4251 33.4095L8.42514 5.90947ZM7.50014 29.2501C8.70327 27.1813 10.0001 22.3876 10.0001 16.7501C9.99795 15.2564 10.3323 13.7813 10.9783 12.4345L26.2642 29.2501H7.50014ZM26.2501 35.5001C26.2501 35.8316 26.1184 36.1496 25.884 36.384C25.6496 36.6184 25.3317 36.7501 25.0001 36.7501H15.0001C14.6686 36.7501 14.3507 36.6184 14.1163 36.384C13.8818 36.1496 13.7501 35.8316 13.7501 35.5001C13.7501 35.1686 13.8818 34.8506 14.1163 34.6162C14.3507 34.3818 14.6686 34.2501 15.0001 34.2501H25.0001C25.3317 34.2501 25.6496 34.3818 25.884 34.6162C26.1184 34.8506 26.2501 35.1686 26.2501 35.5001ZM33.4376 28.5079C33.2916 28.5645 33.1364 28.5937 32.9798 28.5938C32.7288 28.5936 32.4836 28.5177 32.2762 28.3762C32.0689 28.2346 31.909 28.0338 31.8173 27.8001C30.6798 24.9048 30.0001 20.7735 30.0001 16.7501C30.0006 15.001 29.5424 13.2825 28.6711 11.7659C27.7999 10.2493 26.5461 8.98771 25.0349 8.10711C23.5237 7.22652 21.8079 6.75768 20.0589 6.7474C18.3099 6.73712 16.5888 7.18576 15.0673 8.04853C14.7796 8.20441 14.4423 8.24127 14.1277 8.15121C13.8132 8.06114 13.5465 7.85132 13.3849 7.56681C13.2233 7.28229 13.1797 6.94576 13.2635 6.62946C13.3473 6.31316 13.5517 6.04233 13.833 5.87509C15.7346 4.79642 17.886 4.23539 20.0723 4.24801C22.2586 4.26063 24.4033 4.84645 26.2924 5.94699C28.1815 7.04754 29.7489 8.62433 30.8382 10.52C31.9275 12.4156 32.5005 14.5638 32.5001 16.7501C32.5001 22.2735 33.758 25.9048 34.1439 26.8876C34.2651 27.1961 34.2587 27.5401 34.1263 27.844C33.9938 28.1478 33.7461 28.3867 33.4376 28.5079Z" fill="white"/>
</svg>
