<svg width="40" height="41" viewBox="0 0 40 41" fill="none" xmlns="http://www.w3.org/2000/svg">
<path d="M8.42504 5.90948C8.31527 5.78574 8.18203 5.68502 8.03304 5.61315C7.88406 5.54129 7.72229 5.4997 7.55711 5.49082C7.39194 5.48193 7.22664 5.50592 7.07081 5.56139C6.91497 5.61685 6.77169 5.7027 6.64928 5.81395C6.52686 5.9252 6.42775 6.05963 6.35767 6.20947C6.2876 6.35931 6.24796 6.52156 6.24105 6.68683C6.23415 6.8521 6.26011 7.0171 6.31745 7.17226C6.37478 7.32742 6.46234 7.46966 6.57504 7.59073L6.94692 8.00011H6.25004C5.587 8.00011 4.95112 8.2635 4.48228 8.73234C4.01344 9.20118 3.75004 9.83706 3.75004 10.5001V35.5001C3.74722 35.9766 3.88193 36.4438 4.13801 36.8457C4.3941 37.2476 4.76068 37.567 5.19379 37.7657C5.52476 37.9194 5.88515 37.9994 6.25004 38.0001C6.83734 37.9984 7.40514 37.7892 7.85317 37.4095L7.86567 37.3985L12.9688 33.0001H29.675L31.575 35.0907C31.6848 35.2145 31.8181 35.3152 31.967 35.3871C32.116 35.4589 32.2778 35.5005 32.443 35.5094C32.6082 35.5183 32.7734 35.4943 32.9293 35.4388C33.0851 35.3834 33.2284 35.2975 33.3508 35.1863C33.4732 35.075 33.5723 34.9406 33.6424 34.7907C33.7125 34.6409 33.7521 34.4786 33.759 34.3134C33.7659 34.1481 33.74 33.9831 33.6826 33.828C33.6253 33.6728 33.5378 33.5306 33.425 33.4095L8.42504 5.90948ZM12.5 30.5001C12.1999 30.5003 11.9098 30.6084 11.6829 30.8048L6.25004 35.5001V10.5001H9.21879L27.4016 30.5001H12.5ZM36.25 10.5001V29.5626C36.25 29.8941 36.1184 30.2121 35.8839 30.4465C35.6495 30.6809 35.3316 30.8126 35 30.8126C34.6685 30.8126 34.3506 30.6809 34.1162 30.4465C33.8817 30.2121 33.75 29.8941 33.75 29.5626V10.5001H16.5297C16.1982 10.5001 15.8803 10.3684 15.6458 10.134C15.4114 9.89957 15.2797 9.58163 15.2797 9.25011C15.2797 8.91858 15.4114 8.60064 15.6458 8.36622C15.8803 8.1318 16.1982 8.00011 16.5297 8.00011H33.75C34.4131 8.00011 35.049 8.2635 35.5178 8.73234C35.9867 9.20118 36.25 9.83706 36.25 10.5001Z" fill="white"/>
</svg>
