<svg width="20" height="20" viewBox="0 0 20 20" fill="none" xmlns="http://www.w3.org/2000/svg">
<path d="M9.06252 10C9.06252 9.81458 9.1175 9.63332 9.22052 9.47915C9.32353 9.32498 9.46995 9.20482 9.64125 9.13386C9.81256 9.06291 10.0011 9.04434 10.1829 9.08051C10.3648 9.11669 10.5318 9.20598 10.6629 9.33709C10.794 9.4682 10.8833 9.63525 10.9195 9.8171C10.9557 9.99896 10.9371 10.1875 10.8662 10.3588C10.7952 10.5301 10.675 10.6765 10.5209 10.7795C10.3667 10.8825 10.1854 10.9375 10 10.9375C9.75138 10.9375 9.51292 10.8387 9.33711 10.6629C9.16129 10.4871 9.06252 10.2486 9.06252 10ZM6.56252 10.9375C6.74794 10.9375 6.9292 10.8825 7.08337 10.7795C7.23754 10.6765 7.3577 10.5301 7.42866 10.3588C7.49961 10.1875 7.51818 9.99896 7.48201 9.8171C7.44583 9.63525 7.35654 9.4682 7.22543 9.33709C7.09432 9.20598 6.92727 9.11669 6.74542 9.08051C6.56356 9.04434 6.37506 9.06291 6.20375 9.13386C6.03245 9.20482 5.88603 9.32498 5.78302 9.47915C5.68 9.63332 5.62502 9.81458 5.62502 10C5.62502 10.2486 5.72379 10.4871 5.89961 10.6629C6.07542 10.8387 6.31388 10.9375 6.56252 10.9375ZM13.4375 10.9375C13.6229 10.9375 13.8042 10.8825 13.9584 10.7795C14.1125 10.6765 14.2327 10.5301 14.3037 10.3588C14.3746 10.1875 14.3932 9.99896 14.357 9.8171C14.3208 9.63525 14.2315 9.4682 14.1004 9.33709C13.9693 9.20598 13.8023 9.11669 13.6204 9.08051C13.4386 9.04434 13.2501 9.06291 13.0788 9.13386C12.9074 9.20482 12.761 9.32498 12.658 9.47915C12.555 9.63332 12.5 9.81458 12.5 10C12.5 10.2486 12.5988 10.4871 12.7746 10.6629C12.9504 10.8387 13.1889 10.9375 13.4375 10.9375ZM18.125 5V15C18.125 15.3315 17.9933 15.6495 17.7589 15.8839C17.5245 16.1183 17.2065 16.25 16.875 16.25H6.4844L3.93752 18.45L3.93049 18.4555C3.70552 18.6462 3.41997 18.7506 3.12502 18.75C2.9414 18.7496 2.76009 18.7091 2.59377 18.6313C2.37804 18.5315 2.19556 18.3719 2.06812 18.1713C1.94067 17.9707 1.87364 17.7377 1.87502 17.5V5C1.87502 4.66848 2.00672 4.35054 2.24114 4.11612C2.47556 3.8817 2.7935 3.75 3.12502 3.75H16.875C17.2065 3.75 17.5245 3.8817 17.7589 4.11612C17.9933 4.35054 18.125 4.66848 18.125 5ZM16.875 5H3.12502V17.5L5.84143 15.1563C5.95436 15.0566 6.09945 15.0012 6.25002 15H16.875V5Z" fill="white"/>
</svg>
