<svg width="21" height="20" viewBox="0 0 21 20" fill="none" xmlns="http://www.w3.org/2000/svg">
<path d="M10.5 1.875C8.89303 1.875 7.32214 2.35152 5.986 3.24431C4.64985 4.1371 3.60844 5.40605 2.99348 6.8907C2.37852 8.37535 2.21762 10.009 2.53112 11.5851C2.84463 13.1612 3.61846 14.6089 4.75476 15.7452C5.89106 16.8815 7.3388 17.6554 8.9149 17.9689C10.491 18.2824 12.1247 18.1215 13.6093 17.5065C15.094 16.8916 16.3629 15.8502 17.2557 14.514C18.1485 13.1779 18.625 11.607 18.625 10C18.6225 7.84588 17.7657 5.78069 16.2425 4.2575C14.7193 2.7343 12.6541 1.87748 10.5 1.875ZM17.375 10C17.3755 10.634 17.288 11.2651 17.1148 11.875H14.1063C14.2979 10.6323 14.2979 9.36765 14.1063 8.125H17.1148C17.288 8.73493 17.3755 9.36597 17.375 10ZM8.46875 13.125H12.5313C12.131 14.4364 11.4362 15.6389 10.5 16.6406C9.56413 15.6387 8.86939 14.4362 8.46875 13.125ZM8.16407 11.875C7.94949 10.6342 7.94949 9.36579 8.16407 8.125H12.8422C13.0568 9.36579 13.0568 10.6342 12.8422 11.875H8.16407ZM3.625 10C3.62446 9.36597 3.71202 8.73493 3.88516 8.125H6.89375C6.70208 9.36765 6.70208 10.6323 6.89375 11.875H3.88516C3.71202 11.2651 3.62446 10.634 3.625 10ZM12.5313 6.875H8.46875C8.86898 5.5636 9.56377 4.36108 10.5 3.35938C11.4359 4.36134 12.1306 5.56378 12.5313 6.875ZM16.6195 6.875H13.8367C13.486 5.58821 12.8948 4.37943 12.0945 3.3125C13.0615 3.54479 13.9668 3.98342 14.7484 4.59832C15.53 5.21323 16.1693 5.98987 16.6227 6.875H16.6195ZM8.90547 3.3125C8.10516 4.37943 7.51403 5.58821 7.16328 6.875H4.37735C4.83068 5.98987 5.47006 5.21323 6.25163 4.59832C7.03321 3.98342 7.93851 3.54479 8.90547 3.3125ZM4.37735 13.125H7.16328C7.51403 14.4118 8.10516 15.6206 8.90547 16.6875C7.93851 16.4552 7.03321 16.0166 6.25163 15.4017C5.47006 14.7868 4.83068 14.0101 4.37735 13.125ZM12.0945 16.6875C12.8948 15.6206 13.486 14.4118 13.8367 13.125H16.6227C16.1693 14.0101 15.53 14.7868 14.7484 15.4017C13.9668 16.0166 13.0615 16.4552 12.0945 16.6875Z" fill="#F3F3F3"/>
</svg>
