<svg width="504" height="319" viewBox="0 0 504 319" fill="none" xmlns="http://www.w3.org/2000/svg">
<path d="M280 0.5H495C499.418 0.5 503 4.08172 503 8.5V65.5C503 69.9183 499.418 73.5 495 73.5H280" stroke="white" stroke-opacity="0.2"/>
<path d="M280 146.5H495C499.418 146.5 503 150.082 503 154.5V211.5C503 215.918 499.418 219.5 495 219.5H280" stroke="white" stroke-opacity="0.2"/>
<path d="M224 73.5H9C4.58172 73.5 1 77.0817 1 81.5V138.5C1 142.918 4.58173 146.5 9 146.5H224" stroke="white" stroke-opacity="0.2"/>
<path d="M224 219.5H9C4.58172 219.5 1 223.082 1 227.5V310.5C1 314.918 4.58173 318.5 9 318.5H224" stroke="white" stroke-opacity="0.2"/>
</svg>
