<svg width="15" height="16" viewBox="0 0 15 16" fill="none" xmlns="http://www.w3.org/2000/svg">
<path d="M13.9254 6.64689L9.23785 1.64689C9.17233 1.57692 9.08883 1.52925 8.99791 1.5099C8.90699 1.49056 8.81273 1.50041 8.72705 1.53821C8.64138 1.57601 8.56814 1.64006 8.51659 1.72226C8.46504 1.80446 8.43751 1.90112 8.43746 2.00001V4.52189C6.91754 4.66064 5.23883 5.45439 3.85778 6.70376C2.19489 8.20876 1.15953 10.1481 0.942152 12.1644C0.925164 12.3211 0.954961 12.4796 1.0273 12.6173C1.09964 12.7549 1.21084 12.8647 1.34508 12.931C1.47931 12.9974 1.62973 13.0168 1.77495 12.9867C1.92016 12.9566 2.05276 12.8783 2.15387 12.7631C2.7984 12.0313 5.09176 9.71689 8.43746 9.51314V12C8.43751 12.0989 8.46504 12.1956 8.51659 12.2778C8.56814 12.36 8.64138 12.424 8.72705 12.4618C8.81273 12.4996 8.90699 12.5095 8.99791 12.4901C9.08883 12.4708 9.17233 12.4231 9.23785 12.3531L13.9254 7.35314C14.013 7.2594 14.0622 7.13241 14.0622 7.00001C14.0622 6.86761 14.013 6.74062 13.9254 6.64689ZM9.37496 10.7931V9.00001C9.37496 8.8674 9.32558 8.74023 9.23767 8.64646C9.14976 8.55269 9.03053 8.50001 8.90621 8.50001C7.2609 8.50001 5.65836 8.95814 4.14313 9.86251C3.37142 10.3252 2.65239 10.8813 2.00035 11.52C2.3402 10.03 3.19684 8.61314 4.46422 7.46626C5.82477 6.23564 7.48532 5.50001 8.90621 5.50001C9.03053 5.50001 9.14976 5.44733 9.23767 5.35357C9.32558 5.2598 9.37496 5.13262 9.37496 5.00001V3.20751L12.931 7.00001L9.37496 10.7931Z" fill="#B3B3B3"/>
</svg>
