<svg width="40" height="40" viewBox="0 0 40 40" fill="none" xmlns="http://www.w3.org/2000/svg">
<rect width="40" height="40" rx="20" fill="#191A23"/>
<rect x="0.5" y="0.5" width="39" height="39" rx="19.5" stroke="white" stroke-opacity="0.2"/>
<path d="M27.5 15.625C26.5058 15.624 25.5525 15.2285 24.8495 14.5255C24.1465 13.8225 23.751 12.8692 23.75 11.875C23.75 11.7092 23.6842 11.5503 23.5669 11.4331C23.4497 11.3158 23.2908 11.25 23.125 11.25H20C19.8342 11.25 19.6753 11.3158 19.5581 11.4331C19.4408 11.5503 19.375 11.7092 19.375 11.875V22.1875C19.3749 22.4671 19.2997 22.7415 19.1574 22.9822C19.0151 23.2229 18.8108 23.4209 18.5658 23.5557C18.3208 23.6905 18.0442 23.7571 17.7647 23.7486C17.4853 23.74 17.2132 23.6566 16.977 23.5071C16.7407 23.3576 16.5489 23.1474 16.4215 22.8985C16.2942 22.6496 16.2359 22.3711 16.2529 22.092C16.2698 21.8129 16.3614 21.5435 16.5179 21.3119C16.6745 21.0802 16.8903 20.8948 17.143 20.775C17.2498 20.7243 17.3401 20.6443 17.4033 20.5443C17.4665 20.4443 17.5 20.3284 17.5 20.2102V16.875C17.5 16.7836 17.48 16.6934 17.4414 16.6106C17.4028 16.5278 17.3465 16.4545 17.2765 16.3958C17.2065 16.3371 17.1245 16.2944 17.0362 16.2709C16.9479 16.2473 16.8556 16.2434 16.7656 16.2594C13.9773 16.7563 11.875 19.3047 11.875 22.1875C11.875 23.7622 12.5006 25.2724 13.6141 26.3859C14.7276 27.4994 16.2378 28.125 17.8125 28.125C19.3872 28.125 20.8974 27.4994 22.0109 26.3859C23.1244 25.2724 23.75 23.7622 23.75 22.1875V19.0852C24.9075 19.6891 26.1944 20.003 27.5 20C27.6658 20 27.8247 19.9342 27.9419 19.8169C28.0592 19.6997 28.125 19.5408 28.125 19.375V16.25C28.125 16.0842 28.0592 15.9253 27.9419 15.8081C27.8247 15.6908 27.6658 15.625 27.5 15.625ZM26.875 18.7219C25.6536 18.6136 24.4841 18.1777 23.4898 17.4602C23.3964 17.393 23.2862 17.3529 23.1714 17.3443C23.0566 17.3358 22.9417 17.3591 22.8394 17.4117C22.737 17.4643 22.6511 17.5442 22.5912 17.6424C22.5314 17.7407 22.4998 17.8537 22.5 17.9688V22.1875C22.5 23.4307 22.0061 24.623 21.1271 25.5021C20.248 26.3811 19.0557 26.875 17.8125 26.875C16.5693 26.875 15.377 26.3811 14.4979 25.5021C13.6189 24.623 13.125 23.4307 13.125 22.1875C13.125 20.1641 14.425 18.3492 16.25 17.6875V19.8492C15.846 20.1192 15.5188 20.4892 15.3003 20.9232C15.0818 21.3572 14.9795 21.8405 15.0034 22.3258C15.0272 22.8111 15.1764 23.282 15.4364 23.6925C15.6964 24.103 16.0582 24.4392 16.4868 24.6682C16.9153 24.8972 17.3959 25.0114 17.8817 24.9994C18.3674 24.9875 18.8418 24.8499 19.2586 24.6C19.6753 24.3502 20.0203 23.9966 20.2597 23.5738C20.4992 23.151 20.625 22.6734 20.625 22.1875V12.5H22.5391C22.6796 13.6008 23.1816 14.6239 23.9664 15.4086C24.7511 16.1934 25.7742 16.6954 26.875 16.8359V18.7219Z" fill="white"/>
</svg>
