<svg width="40" height="40" viewBox="0 0 40 40" fill="none" xmlns="http://www.w3.org/2000/svg">
<rect width="40" height="40" rx="20" fill="#191A23"/>
<rect x="0.5" y="0.5" width="39" height="39" rx="19.5" stroke="white" stroke-opacity="0.2"/>
<path d="M27.8808 12.0461C27.7839 11.9625 27.6661 11.9068 27.54 11.8852C27.4139 11.8636 27.2843 11.8768 27.1652 11.9234L11.3323 18.1195C11.108 18.2068 10.918 18.3645 10.791 18.5691C10.6641 18.7737 10.607 19.0139 10.6284 19.2537C10.6498 19.4935 10.7486 19.7199 10.9098 19.8987C11.071 20.0776 11.2859 20.1992 11.5222 20.2453L15.6245 21.0508V25.625C15.6237 25.8741 15.6978 26.1178 15.8371 26.3244C15.9764 26.5309 16.1745 26.6909 16.4058 26.7836C16.6367 26.8779 16.8907 26.9005 17.1346 26.8485C17.3786 26.7966 17.6013 26.6724 17.7737 26.4922L19.7519 24.4406L22.8902 27.1875C23.1166 27.3883 23.4086 27.4995 23.7112 27.5C23.8439 27.4999 23.9757 27.479 24.1019 27.4383C24.3081 27.3728 24.4935 27.2545 24.6398 27.0951C24.7861 26.9357 24.888 26.7407 24.9355 26.5297L28.1066 12.7344C28.1349 12.6099 28.1289 12.4802 28.0891 12.3589C28.0493 12.2377 27.9773 12.1295 27.8808 12.0461ZM23.1042 14.8586L16.105 19.8711L12.23 19.1109L23.1042 14.8586ZM16.8745 25.625V21.9156L18.8112 23.614L16.8745 25.625ZM23.7128 26.25L17.2534 20.5859L26.5503 13.9226L23.7128 26.25Z" fill="white"/>
</svg>
