<svg width="40" height="40" viewBox="0 0 40 40" fill="none" xmlns="http://www.w3.org/2000/svg">
<rect width="40" height="40" rx="20" fill="#191A23"/>
<rect x="0.5" y="0.5" width="39" height="39" rx="19.5" stroke="white" stroke-opacity="0.2"/>
<path d="M26.7775 26.5398L21.8869 18.8539L26.7127 13.5453C26.8218 13.4223 26.878 13.2612 26.8692 13.097C26.8604 12.9327 26.7872 12.7786 26.6655 12.668C26.5437 12.5574 26.3833 12.4992 26.219 12.5061C26.0547 12.513 25.8997 12.5843 25.7877 12.7047L21.1908 17.7609L18.0275 12.7898C17.9711 12.7011 17.8932 12.6279 17.801 12.5773C17.7088 12.5266 17.6053 12.5 17.5002 12.5H13.7502C13.6381 12.4999 13.5281 12.53 13.4316 12.5871C13.3352 12.6441 13.2558 12.7261 13.2019 12.8243C13.148 12.9226 13.1215 13.0335 13.1252 13.1455C13.1289 13.2575 13.1626 13.3664 13.2228 13.4609L18.1134 21.1461L13.2877 26.4586C13.2313 26.5191 13.1875 26.5902 13.1589 26.6678C13.1302 26.7454 13.1172 26.8279 13.1207 26.9105C13.1241 26.9932 13.1439 27.0743 13.179 27.1492C13.214 27.2241 13.2636 27.2914 13.3248 27.347C13.386 27.4026 13.4576 27.4455 13.5355 27.4733C13.6135 27.501 13.6961 27.513 13.7787 27.5085C13.8613 27.5041 13.9422 27.4833 14.0167 27.4474C14.0912 27.4114 14.1578 27.3611 14.2127 27.2992L18.8095 22.243L21.9728 27.2141C22.0297 27.3021 22.1078 27.3745 22.1999 27.4244C22.2921 27.4744 22.3953 27.5004 22.5002 27.5H26.2502C26.3621 27.5 26.472 27.4699 26.5683 27.4128C26.6646 27.3558 26.7439 27.274 26.7978 27.1759C26.8517 27.0778 26.8782 26.967 26.8746 26.8551C26.8711 26.7432 26.8375 26.6343 26.7775 26.5398ZM22.8431 26.25L14.8884 13.75H17.1541L25.1119 26.25H22.8431Z" fill="white"/>
</svg>
