<svg width="21" height="20" viewBox="0 0 21 20" fill="none" xmlns="http://www.w3.org/2000/svg">
<path d="M18 3.75V11.875C18 12.2065 17.8683 12.5245 17.6339 12.7589C17.3995 12.9933 17.0815 13.125 16.75 13.125H8.25859L9.06719 13.9328C9.12526 13.9909 9.17132 14.0598 9.20275 14.1357C9.23417 14.2116 9.25035 14.2929 9.25035 14.375C9.25035 14.4571 9.23417 14.5384 9.20275 14.6143C9.17132 14.6902 9.12526 14.7591 9.06719 14.8172C9.00912 14.8753 8.94018 14.9213 8.86431 14.9527C8.78844 14.9842 8.70712 15.0003 8.625 15.0003C8.54288 15.0003 8.46156 14.9842 8.38569 14.9527C8.30982 14.9213 8.24088 14.8753 8.18281 14.8172L6.30781 12.9422C6.2497 12.8841 6.2036 12.8152 6.17215 12.7393C6.1407 12.6635 6.12451 12.5821 6.12451 12.5C6.12451 12.4179 6.1407 12.3365 6.17215 12.2607C6.2036 12.1848 6.2497 12.1159 6.30781 12.0578L8.18281 10.1828C8.30009 10.0655 8.45915 9.99965 8.625 9.99965C8.79085 9.99965 8.94991 10.0655 9.06719 10.1828C9.18446 10.3001 9.25035 10.4591 9.25035 10.625C9.25035 10.7909 9.18446 10.9499 9.06719 11.0672L8.25859 11.875H16.75V3.75H8V4.375C8 4.54076 7.93415 4.69973 7.81694 4.81694C7.69973 4.93415 7.54076 5 7.375 5C7.20924 5 7.05027 4.93415 6.93306 4.81694C6.81585 4.69973 6.75 4.54076 6.75 4.375V3.75C6.75 3.41848 6.8817 3.10054 7.11612 2.86612C7.35054 2.6317 7.66848 2.5 8 2.5H16.75C17.0815 2.5 17.3995 2.6317 17.6339 2.86612C17.8683 3.10054 18 3.41848 18 3.75ZM13.625 15C13.4592 15 13.3003 15.0658 13.1831 15.1831C13.0658 15.3003 13 15.4592 13 15.625V16.25H4.25V8.125H12.7414L11.9328 8.93281C11.8155 9.05009 11.7497 9.20915 11.7497 9.375C11.7497 9.54085 11.8155 9.69991 11.9328 9.81719C12.0501 9.93446 12.2091 10.0003 12.375 10.0003C12.5409 10.0003 12.6999 9.93446 12.8172 9.81719L14.6922 7.94219C14.7503 7.88414 14.7964 7.81521 14.8279 7.73934C14.8593 7.66346 14.8755 7.58213 14.8755 7.5C14.8755 7.41787 14.8593 7.33654 14.8279 7.26066C14.7964 7.18479 14.7503 7.11586 14.6922 7.05781L12.8172 5.18281C12.6999 5.06554 12.5409 4.99965 12.375 4.99965C12.2091 4.99965 12.0501 5.06554 11.9328 5.18281C11.8155 5.30009 11.7497 5.45915 11.7497 5.625C11.7497 5.79085 11.8155 5.94991 11.9328 6.06719L12.7414 6.875H4.25C3.91848 6.875 3.60054 7.0067 3.36612 7.24112C3.1317 7.47554 3 7.79348 3 8.125V16.25C3 16.5815 3.1317 16.8995 3.36612 17.1339C3.60054 17.3683 3.91848 17.5 4.25 17.5H13C13.3315 17.5 13.6495 17.3683 13.8839 17.1339C14.1183 16.8995 14.25 16.5815 14.25 16.25V15.625C14.25 15.4592 14.1842 15.3003 14.0669 15.1831C13.9497 15.0658 13.7908 15 13.625 15Z" fill="#F3F3F3"/>
</svg>
