<svg width="16" height="16" viewBox="0 0 16 16" fill="none" xmlns="http://www.w3.org/2000/svg">
<path d="M15.9998 8.50006C15.9998 8.63267 15.9472 8.75984 15.8534 8.85361C15.7596 8.94738 15.6324 9.00006 15.4998 9.00006H14.4998V10.0001C14.4998 10.1327 14.4472 10.2598 14.3534 10.3536C14.2596 10.4474 14.1324 10.5001 13.9998 10.5001C13.8672 10.5001 13.7401 10.4474 13.6463 10.3536C13.5525 10.2598 13.4998 10.1327 13.4998 10.0001V9.00006H12.4998C12.3672 9.00006 12.2401 8.94738 12.1463 8.85361C12.0525 8.75984 11.9998 8.63267 11.9998 8.50006C11.9998 8.36745 12.0525 8.24027 12.1463 8.1465C12.2401 8.05274 12.3672 8.00006 12.4998 8.00006H13.4998V7.00006C13.4998 6.86745 13.5525 6.74027 13.6463 6.6465C13.7401 6.55274 13.8672 6.50006 13.9998 6.50006C14.1324 6.50006 14.2596 6.55274 14.3534 6.6465C14.4472 6.74027 14.4998 6.86745 14.4998 7.00006V8.00006H15.4998C15.6324 8.00006 15.7596 8.05274 15.8534 8.1465C15.9472 8.24027 15.9998 8.36745 15.9998 8.50006ZM12.383 12.1782C12.4683 12.2798 12.5098 12.4112 12.4983 12.5434C12.4869 12.6756 12.4233 12.7978 12.3217 12.8832C12.2201 12.9685 12.0887 13.0101 11.9565 12.9986C11.8243 12.9871 11.7021 12.9235 11.6167 12.8219C10.3592 11.3244 8.63046 10.5001 6.74984 10.5001C4.86921 10.5001 3.14046 11.3244 1.88296 12.8219C1.7976 12.9235 1.67539 12.9869 1.54324 12.9983C1.41108 13.0098 1.2798 12.9682 1.17828 12.8829C1.07675 12.7975 1.01329 12.6753 1.00186 12.5431C0.990433 12.411 1.03197 12.2797 1.11734 12.1782C2.05109 11.0669 3.21234 10.2776 4.50296 9.85506C3.71915 9.36687 3.11566 8.63669 2.7838 7.77498C2.45193 6.91327 2.40974 5.96692 2.66362 5.07909C2.91749 4.19127 3.45362 3.41029 4.19088 2.85429C4.92814 2.2983 5.82643 1.99756 6.74984 1.99756C7.67325 1.99756 8.57153 2.2983 9.30879 2.85429C10.0461 3.41029 10.5822 4.19127 10.8361 5.07909C11.0899 5.96692 11.0477 6.91327 10.7159 7.77498C10.384 8.63669 9.78052 9.36687 8.99671 9.85506C10.2873 10.2776 11.4486 11.0669 12.383 12.1782ZM6.74984 9.50006C7.39263 9.50006 8.02098 9.30945 8.55544 8.95233C9.0899 8.59522 9.50646 8.08764 9.75245 7.49378C9.99843 6.89992 10.0628 6.24645 9.93739 5.61601C9.81199 4.98558 9.50245 4.40648 9.04793 3.95196C8.59341 3.49744 8.01432 3.18791 7.38388 3.06251C6.75344 2.9371 6.09998 3.00146 5.50612 3.24745C4.91226 3.49343 4.40468 3.91 4.04756 4.44446C3.69045 4.97891 3.49984 5.60727 3.49984 6.25006C3.50083 7.11171 3.84356 7.93778 4.45284 8.54706C5.06211 9.15634 5.88819 9.49907 6.74984 9.50006Z" fill="#F3F3F3"/>
</svg>
