<svg width="16" height="16" viewBox="0 0 16 16" fill="none" xmlns="http://www.w3.org/2000/svg">
<path d="M14.6925 11.8182L9.22623 2.32631C9.10068 2.11283 8.92156 1.93586 8.70659 1.81289C8.49162 1.68993 8.24826 1.62524 8.0006 1.62524C7.75295 1.62524 7.50959 1.68993 7.29462 1.81289C7.07965 1.93586 6.90053 2.11283 6.77498 2.32631L1.30873 11.8182C1.18841 12.0241 1.125 12.2584 1.125 12.4969C1.125 12.7355 1.18841 12.9697 1.30873 13.1757C1.4326 13.3907 1.61149 13.5688 1.82701 13.6917C2.04252 13.8146 2.28689 13.8779 2.53498 13.8751H13.4662C13.7141 13.8777 13.9582 13.8143 14.1735 13.6914C14.3888 13.5684 14.5675 13.3905 14.6912 13.1757C14.8117 12.9698 14.8754 12.7356 14.8756 12.4971C14.8758 12.2586 14.8126 12.0243 14.6925 11.8182ZM14.0419 12.8001C13.9834 12.9005 13.8993 12.9835 13.7981 13.0407C13.697 13.0978 13.5824 13.1269 13.4662 13.1251H2.53498C2.41881 13.1269 2.30424 13.0978 2.20306 13.0407C2.10189 12.9835 2.01776 12.9005 1.95935 12.8001C1.90472 12.7082 1.87588 12.6032 1.87588 12.4963C1.87588 12.3894 1.90472 12.2845 1.95935 12.1926L7.42498 2.70068C7.48473 2.60142 7.56914 2.5193 7.67 2.46229C7.77086 2.40528 7.88475 2.37532 8.0006 2.37532C8.11646 2.37532 8.23035 2.40528 8.33121 2.46229C8.43207 2.5193 8.51648 2.60142 8.57623 2.70068L14.0425 12.1926C14.097 12.2845 14.1258 12.3895 14.1256 12.4964C14.1255 12.6033 14.0966 12.7082 14.0419 12.8001ZM7.6256 9.00006V6.50006C7.6256 6.4006 7.66511 6.30522 7.73544 6.23489C7.80576 6.16457 7.90115 6.12506 8.0006 6.12506C8.10006 6.12506 8.19544 6.16457 8.26577 6.23489C8.33609 6.30522 8.3756 6.4006 8.3756 6.50006V9.00006C8.3756 9.09951 8.33609 9.1949 8.26577 9.26522C8.19544 9.33555 8.10006 9.37506 8.0006 9.37506C7.90115 9.37506 7.80576 9.33555 7.73544 9.26522C7.66511 9.1949 7.6256 9.09951 7.6256 9.00006ZM8.6256 11.2501C8.6256 11.3737 8.58895 11.4945 8.52027 11.5973C8.4516 11.7001 8.35398 11.7802 8.23978 11.8275C8.12558 11.8748 7.99991 11.8872 7.87867 11.863C7.75743 11.8389 7.64607 11.7794 7.55866 11.692C7.47125 11.6046 7.41173 11.4932 7.38761 11.372C7.3635 11.2507 7.37587 11.1251 7.42318 11.0109C7.47048 10.8967 7.55059 10.7991 7.65337 10.7304C7.75615 10.6617 7.87699 10.6251 8.0006 10.6251C8.16636 10.6251 8.32534 10.6909 8.44255 10.8081C8.55976 10.9253 8.6256 11.0843 8.6256 11.2501Z" fill="#F3F3F3"/>
</svg>
