<svg width="21" height="20" viewBox="0 0 21 20" fill="none" xmlns="http://www.w3.org/2000/svg">
<path d="M17.2765 16.5398L12.3859 8.85391L17.2117 3.54531C17.3208 3.42228 17.3771 3.2612 17.3682 3.09697C17.3594 2.93275 17.2862 2.77862 17.1645 2.66801C17.0428 2.5574 16.8824 2.49923 16.7181 2.50609C16.5537 2.51296 16.3987 2.58431 16.2867 2.70469L11.6898 7.76094L8.52652 2.78984C8.47012 2.70106 8.39221 2.62795 8.30003 2.57728C8.20785 2.52661 8.10437 2.50003 7.99918 2.5H4.24918C4.13712 2.49995 4.0271 2.53002 3.93066 2.58708C3.83421 2.64413 3.75487 2.72607 3.70096 2.82431C3.64705 2.92255 3.62054 3.03348 3.62421 3.14548C3.62789 3.25749 3.6616 3.36644 3.72184 3.46094L8.61246 11.1461L3.78668 16.4586C3.73033 16.5191 3.68655 16.5902 3.65788 16.6678C3.62922 16.7454 3.61623 16.8279 3.61969 16.9105C3.62314 16.9932 3.64296 17.0743 3.67799 17.1492C3.71303 17.2241 3.76259 17.2914 3.8238 17.347C3.88501 17.4026 3.95664 17.4455 4.03456 17.4733C4.11248 17.501 4.19513 17.513 4.27772 17.5085C4.3603 17.5041 4.44119 17.4833 4.51568 17.4474C4.59017 17.4114 4.65679 17.3611 4.71168 17.2992L9.30856 12.243L12.4718 17.2141C12.5287 17.3021 12.6068 17.3745 12.699 17.4244C12.7911 17.4744 12.8944 17.5004 12.9992 17.5H16.7492C16.8611 17.5 16.971 17.4699 17.0673 17.4128C17.1637 17.3558 17.2429 17.274 17.2968 17.1759C17.3507 17.0778 17.3772 16.967 17.3737 16.8551C17.3701 16.7432 17.3366 16.6343 17.2765 16.5398ZM13.3421 16.25L5.38746 3.75H7.65309L15.6109 16.25H13.3421Z" fill="#F3F3F3"/>
</svg>
